<svg width="80" height="80" viewBox="0 0 80 80" fill="none" xmlns="http://www.w3.org/2000/svg">
<g id="solar:chef-hat-heart-bold">
<path id="Vector" fill-rule="evenodd" clip-rule="evenodd" d="M6.66667 33.3333C6.66638 30.9368 7.18292 28.5684 8.18107 26.3896C9.17923 24.2109 10.6355 22.273 12.4506 20.7081C14.2657 19.1433 16.397 17.9883 18.699 17.3219C21.001 16.6555 23.4197 16.4934 25.79 16.8467C26.798 13.8777 28.7106 11.2991 31.2593 9.47283C33.8079 7.64659 36.8646 6.66452 40 6.66452C43.1354 6.66452 46.1921 7.64659 48.7407 9.47283C51.2894 11.2991 53.202 13.8777 54.21 16.8467C55.01 16.7267 55.8289 16.6667 56.6667 16.6667C60.4976 16.6642 64.2125 17.9815 67.186 20.397C70.1596 22.8124 72.2102 26.1785 72.9928 29.9287C73.7754 33.6788 73.2421 37.5841 71.4828 40.9872C69.7235 44.3903 66.8456 47.0835 63.3333 48.6133V57.5H16.6667V48.6133C13.6937 47.3158 11.164 45.179 9.3877 42.4648C7.61141 39.7506 6.66575 36.5771 6.66667 33.3333ZM36.81 45.5667C33.8833 43.4133 30 39.9467 30 36.6667C30 31.09 35.5 29.01 40 33.3167C44.5 29.01 50 31.09 50 36.6667C50 39.95 46.1167 43.4167 43.19 45.5667C41.79 46.59 41.09 47.1033 40 47.1033C38.9067 47.1033 38.21 46.59 36.81 45.5633" fill="white"/>
<path id="Vector_2" d="M18.62 71.38C16.9433 69.7067 16.7067 67.1567 16.6733 62.5H63.3267C63.2933 67.1567 63.0567 69.7067 61.38 71.38C59.4267 73.3333 56.2867 73.3333 50 73.3333H30C23.7133 73.3333 20.5733 73.3333 18.62 71.38Z" fill="white"/>
</g>
</svg>
