<svg width="359" height="264" viewBox="0 0 359 264" fill="none" xmlns="http://www.w3.org/2000/svg">
<rect x="33" y="80" width="293" height="119" rx="20" fill="#FFF7C6"/>
<rect y="113" width="359" height="54" rx="20" fill="#FFF7C6"/>
<rect x="36" y="84" width="287" height="111" rx="20" fill="#F29471"/>
<g filter="url(#filter0_d_1_302)">
<mask id="path-4-outside-1_1_302" maskUnits="userSpaceOnUse" x="47" y="97" width="263" height="87" fill="black">
<rect fill="white" x="47" y="97" width="263" height="87"/>
<path d="M60.832 129.32L60.216 116.888L77.072 98.8H89.28L72.48 117L66.32 123.44L60.832 129.32ZM50.92 138V98.8H61.896V138H50.92ZM77.24 138L64.472 121.816L71.696 114.088L90.12 138H77.24ZM93.0294 138V98.8H104.117V138H93.0294ZM120.35 138V107.592H108.31V98.8H143.422V107.592H131.438V138H120.35ZM166.55 138.784C163.451 138.784 160.577 138.299 157.926 137.328C155.313 136.32 153.035 134.901 151.094 133.072C149.19 131.243 147.697 129.096 146.614 126.632C145.531 124.131 144.99 121.387 144.99 118.4C144.99 115.413 145.531 112.688 146.614 110.224C147.697 107.723 149.19 105.557 151.094 103.728C153.035 101.899 155.313 100.499 157.926 99.528C160.577 98.52 163.451 98.016 166.55 98.016C170.171 98.016 173.401 98.6507 176.238 99.92C179.113 101.189 181.502 103.019 183.406 105.408L176.35 111.792C175.081 110.299 173.681 109.16 172.15 108.376C170.657 107.592 168.977 107.2 167.11 107.2C165.505 107.2 164.03 107.461 162.686 107.984C161.342 108.507 160.185 109.272 159.214 110.28C158.281 111.251 157.534 112.427 156.974 113.808C156.451 115.189 156.19 116.72 156.19 118.4C156.19 120.08 156.451 121.611 156.974 122.992C157.534 124.373 158.281 125.568 159.214 126.576C160.185 127.547 161.342 128.293 162.686 128.816C164.03 129.339 165.505 129.6 167.11 129.6C168.977 129.6 170.657 129.208 172.15 128.424C173.681 127.64 175.081 126.501 176.35 125.008L183.406 131.392C181.502 133.744 179.113 135.573 176.238 136.88C173.401 138.149 170.171 138.784 166.55 138.784ZM214.558 98.8H225.646V138H214.558V98.8ZM199.438 138H188.35V98.8H199.438V138ZM215.342 122.712H198.654V113.528H215.342V122.712ZM243.659 113.976H261.859V122.264H243.659V113.976ZM244.443 129.432H264.939V138H233.467V98.8H264.211V107.368H244.443V129.432ZM271.092 138V98.8H280.22L301.836 124.896H297.524V98.8H308.388V138H299.26L277.644 111.904H281.956V138H271.092ZM62.228 182.504C60.212 182.504 58.352 182.18 56.648 181.532C54.944 180.884 53.456 179.972 52.184 178.796C50.936 177.596 49.964 176.204 49.268 174.62C48.572 173.036 48.224 171.296 48.224 169.4C48.224 167.504 48.572 165.764 49.268 164.18C49.964 162.596 50.936 161.216 52.184 160.04C53.456 158.84 54.944 157.916 56.648 157.268C58.352 156.62 60.212 156.296 62.228 156.296C64.268 156.296 66.128 156.62 67.808 157.268C69.512 157.916 70.988 158.84 72.236 160.04C73.484 161.216 74.456 162.596 75.152 164.18C75.872 165.764 76.232 167.504 76.232 169.4C76.232 171.296 75.872 173.048 75.152 174.656C74.456 176.24 73.484 177.62 72.236 178.796C70.988 179.972 69.512 180.884 67.808 181.532C66.128 182.18 64.268 182.504 62.228 182.504ZM62.228 176.6C63.188 176.6 64.076 176.432 64.892 176.096C65.732 175.76 66.452 175.28 67.052 174.656C67.676 174.008 68.156 173.24 68.492 172.352C68.852 171.464 69.032 170.48 69.032 169.4C69.032 168.296 68.852 167.312 68.492 166.448C68.156 165.56 67.676 164.804 67.052 164.18C66.452 163.532 65.732 163.04 64.892 162.704C64.076 162.368 63.188 162.2 62.228 162.2C61.268 162.2 60.368 162.368 59.528 162.704C58.712 163.04 57.992 163.532 57.368 164.18C56.768 164.804 56.288 165.56 55.928 166.448C55.592 167.312 55.424 168.296 55.424 169.4C55.424 170.48 55.592 171.464 55.928 172.352C56.288 173.24 56.768 174.008 57.368 174.656C57.992 175.28 58.712 175.76 59.528 176.096C60.368 176.432 61.268 176.6 62.228 176.6ZM86.5893 167.852H98.2173V173.36H86.5893V167.852ZM87.0933 182H79.9653V156.8H99.7293V162.308H87.0933V182ZM119.912 176.42L119.516 168.428L130.352 156.8H138.2L127.4 168.5L123.44 172.64L119.912 176.42ZM113.54 182V156.8H120.596V182H113.54ZM130.46 182L122.252 171.596L126.896 166.628L138.74 182H130.46ZM140.61 182V156.8H147.738V182H140.61ZM152.809 182V156.8H158.677L172.573 173.576H169.801V156.8H176.785V182H170.917L157.021 165.224H159.793V182H152.809ZM181.813 182V156.8H193.729C196.513 156.8 198.961 157.316 201.073 158.348C203.185 159.38 204.829 160.832 206.005 162.704C207.205 164.576 207.805 166.808 207.805 169.4C207.805 171.968 207.205 174.2 206.005 176.096C204.829 177.968 203.185 179.42 201.073 180.452C198.961 181.484 196.513 182 193.729 182H181.813ZM188.941 176.312H193.441C194.881 176.312 196.129 176.048 197.185 175.52C198.265 174.968 199.105 174.176 199.705 173.144C200.305 172.088 200.605 170.84 200.605 169.4C200.605 167.936 200.305 166.688 199.705 165.656C199.105 164.624 198.265 163.844 197.185 163.316C196.129 162.764 194.881 162.488 193.441 162.488H188.941V176.312ZM211.555 182V156.8H217.423L231.319 173.576H228.547V156.8H235.531V182H229.663L215.767 165.224H218.539V182H211.555ZM247.111 166.556H258.811V171.884H247.111V166.556ZM247.615 176.492H260.791V182H240.559V156.8H260.323V162.308H247.615V176.492ZM273.603 182.504C271.539 182.504 269.547 182.252 267.627 181.748C265.731 181.22 264.183 180.548 262.983 179.732L265.323 174.476C266.451 175.196 267.747 175.796 269.211 176.276C270.699 176.732 272.175 176.96 273.639 176.96C274.623 176.96 275.415 176.876 276.015 176.708C276.615 176.516 277.047 176.276 277.311 175.988C277.599 175.676 277.743 175.316 277.743 174.908C277.743 174.332 277.479 173.876 276.951 173.54C276.423 173.204 275.739 172.928 274.899 172.712C274.059 172.496 273.123 172.28 272.091 172.064C271.083 171.848 270.063 171.572 269.031 171.236C268.023 170.9 267.099 170.468 266.259 169.94C265.419 169.388 264.735 168.68 264.207 167.816C263.679 166.928 263.415 165.812 263.415 164.468C263.415 162.956 263.823 161.588 264.639 160.364C265.479 159.14 266.727 158.156 268.383 157.412C270.039 156.668 272.103 156.296 274.575 156.296C276.231 156.296 277.851 156.488 279.435 156.872C281.043 157.232 282.471 157.772 283.719 158.492L281.523 163.784C280.323 163.136 279.135 162.656 277.959 162.344C276.783 162.008 275.643 161.84 274.539 161.84C273.555 161.84 272.763 161.948 272.163 162.164C271.563 162.356 271.131 162.62 270.867 162.956C270.603 163.292 270.471 163.676 270.471 164.108C270.471 164.66 270.723 165.104 271.227 165.44C271.755 165.752 272.439 166.016 273.279 166.232C274.143 166.424 275.079 166.628 276.087 166.844C277.119 167.06 278.139 167.336 279.147 167.672C280.179 167.984 281.115 168.416 281.955 168.968C282.795 169.496 283.467 170.204 283.971 171.092C284.499 171.956 284.763 173.048 284.763 174.368C284.763 175.832 284.343 177.188 283.503 178.436C282.687 179.66 281.451 180.644 279.795 181.388C278.163 182.132 276.099 182.504 273.603 182.504ZM296.911 182.504C294.847 182.504 292.855 182.252 290.935 181.748C289.039 181.22 287.491 180.548 286.291 179.732L288.631 174.476C289.759 175.196 291.055 175.796 292.519 176.276C294.007 176.732 295.483 176.96 296.947 176.96C297.931 176.96 298.723 176.876 299.323 176.708C299.923 176.516 300.355 176.276 300.619 175.988C300.907 175.676 301.051 175.316 301.051 174.908C301.051 174.332 300.787 173.876 300.259 173.54C299.731 173.204 299.047 172.928 298.207 172.712C297.367 172.496 296.431 172.28 295.399 172.064C294.391 171.848 293.371 171.572 292.339 171.236C291.331 170.9 290.407 170.468 289.567 169.94C288.727 169.388 288.043 168.68 287.515 167.816C286.987 166.928 286.723 165.812 286.723 164.468C286.723 162.956 287.131 161.588 287.947 160.364C288.787 159.14 290.035 158.156 291.691 157.412C293.347 156.668 295.411 156.296 297.883 156.296C299.539 156.296 301.159 156.488 302.743 156.872C304.351 157.232 305.779 157.772 307.027 158.492L304.831 163.784C303.631 163.136 302.443 162.656 301.267 162.344C300.091 162.008 298.951 161.84 297.847 161.84C296.863 161.84 296.071 161.948 295.471 162.164C294.871 162.356 294.439 162.62 294.175 162.956C293.911 163.292 293.779 163.676 293.779 164.108C293.779 164.66 294.031 165.104 294.535 165.44C295.063 165.752 295.747 166.016 296.587 166.232C297.451 166.424 298.387 166.628 299.395 166.844C300.427 167.06 301.447 167.336 302.455 167.672C303.487 167.984 304.423 168.416 305.263 168.968C306.103 169.496 306.775 170.204 307.279 171.092C307.807 171.956 308.071 173.048 308.071 174.368C308.071 175.832 307.651 177.188 306.811 178.436C305.995 179.66 304.759 180.644 303.103 181.388C301.471 182.132 299.407 182.504 296.911 182.504Z"/>
</mask>
<path d="M60.832 129.32L60.216 116.888L77.072 98.8H89.28L72.48 117L66.32 123.44L60.832 129.32ZM50.92 138V98.8H61.896V138H50.92ZM77.24 138L64.472 121.816L71.696 114.088L90.12 138H77.24ZM93.0294 138V98.8H104.117V138H93.0294ZM120.35 138V107.592H108.31V98.8H143.422V107.592H131.438V138H120.35ZM166.55 138.784C163.451 138.784 160.577 138.299 157.926 137.328C155.313 136.32 153.035 134.901 151.094 133.072C149.19 131.243 147.697 129.096 146.614 126.632C145.531 124.131 144.99 121.387 144.99 118.4C144.99 115.413 145.531 112.688 146.614 110.224C147.697 107.723 149.19 105.557 151.094 103.728C153.035 101.899 155.313 100.499 157.926 99.528C160.577 98.52 163.451 98.016 166.55 98.016C170.171 98.016 173.401 98.6507 176.238 99.92C179.113 101.189 181.502 103.019 183.406 105.408L176.35 111.792C175.081 110.299 173.681 109.16 172.15 108.376C170.657 107.592 168.977 107.2 167.11 107.2C165.505 107.2 164.03 107.461 162.686 107.984C161.342 108.507 160.185 109.272 159.214 110.28C158.281 111.251 157.534 112.427 156.974 113.808C156.451 115.189 156.19 116.72 156.19 118.4C156.19 120.08 156.451 121.611 156.974 122.992C157.534 124.373 158.281 125.568 159.214 126.576C160.185 127.547 161.342 128.293 162.686 128.816C164.03 129.339 165.505 129.6 167.11 129.6C168.977 129.6 170.657 129.208 172.15 128.424C173.681 127.64 175.081 126.501 176.35 125.008L183.406 131.392C181.502 133.744 179.113 135.573 176.238 136.88C173.401 138.149 170.171 138.784 166.55 138.784ZM214.558 98.8H225.646V138H214.558V98.8ZM199.438 138H188.35V98.8H199.438V138ZM215.342 122.712H198.654V113.528H215.342V122.712ZM243.659 113.976H261.859V122.264H243.659V113.976ZM244.443 129.432H264.939V138H233.467V98.8H264.211V107.368H244.443V129.432ZM271.092 138V98.8H280.22L301.836 124.896H297.524V98.8H308.388V138H299.26L277.644 111.904H281.956V138H271.092ZM62.228 182.504C60.212 182.504 58.352 182.18 56.648 181.532C54.944 180.884 53.456 179.972 52.184 178.796C50.936 177.596 49.964 176.204 49.268 174.62C48.572 173.036 48.224 171.296 48.224 169.4C48.224 167.504 48.572 165.764 49.268 164.18C49.964 162.596 50.936 161.216 52.184 160.04C53.456 158.84 54.944 157.916 56.648 157.268C58.352 156.62 60.212 156.296 62.228 156.296C64.268 156.296 66.128 156.62 67.808 157.268C69.512 157.916 70.988 158.84 72.236 160.04C73.484 161.216 74.456 162.596 75.152 164.18C75.872 165.764 76.232 167.504 76.232 169.4C76.232 171.296 75.872 173.048 75.152 174.656C74.456 176.24 73.484 177.62 72.236 178.796C70.988 179.972 69.512 180.884 67.808 181.532C66.128 182.18 64.268 182.504 62.228 182.504ZM62.228 176.6C63.188 176.6 64.076 176.432 64.892 176.096C65.732 175.76 66.452 175.28 67.052 174.656C67.676 174.008 68.156 173.24 68.492 172.352C68.852 171.464 69.032 170.48 69.032 169.4C69.032 168.296 68.852 167.312 68.492 166.448C68.156 165.56 67.676 164.804 67.052 164.18C66.452 163.532 65.732 163.04 64.892 162.704C64.076 162.368 63.188 162.2 62.228 162.2C61.268 162.2 60.368 162.368 59.528 162.704C58.712 163.04 57.992 163.532 57.368 164.18C56.768 164.804 56.288 165.56 55.928 166.448C55.592 167.312 55.424 168.296 55.424 169.4C55.424 170.48 55.592 171.464 55.928 172.352C56.288 173.24 56.768 174.008 57.368 174.656C57.992 175.28 58.712 175.76 59.528 176.096C60.368 176.432 61.268 176.6 62.228 176.6ZM86.5893 167.852H98.2173V173.36H86.5893V167.852ZM87.0933 182H79.9653V156.8H99.7293V162.308H87.0933V182ZM119.912 176.42L119.516 168.428L130.352 156.8H138.2L127.4 168.5L123.44 172.64L119.912 176.42ZM113.54 182V156.8H120.596V182H113.54ZM130.46 182L122.252 171.596L126.896 166.628L138.74 182H130.46ZM140.61 182V156.8H147.738V182H140.61ZM152.809 182V156.8H158.677L172.573 173.576H169.801V156.8H176.785V182H170.917L157.021 165.224H159.793V182H152.809ZM181.813 182V156.8H193.729C196.513 156.8 198.961 157.316 201.073 158.348C203.185 159.38 204.829 160.832 206.005 162.704C207.205 164.576 207.805 166.808 207.805 169.4C207.805 171.968 207.205 174.2 206.005 176.096C204.829 177.968 203.185 179.42 201.073 180.452C198.961 181.484 196.513 182 193.729 182H181.813ZM188.941 176.312H193.441C194.881 176.312 196.129 176.048 197.185 175.52C198.265 174.968 199.105 174.176 199.705 173.144C200.305 172.088 200.605 170.84 200.605 169.4C200.605 167.936 200.305 166.688 199.705 165.656C199.105 164.624 198.265 163.844 197.185 163.316C196.129 162.764 194.881 162.488 193.441 162.488H188.941V176.312ZM211.555 182V156.8H217.423L231.319 173.576H228.547V156.8H235.531V182H229.663L215.767 165.224H218.539V182H211.555ZM247.111 166.556H258.811V171.884H247.111V166.556ZM247.615 176.492H260.791V182H240.559V156.8H260.323V162.308H247.615V176.492ZM273.603 182.504C271.539 182.504 269.547 182.252 267.627 181.748C265.731 181.22 264.183 180.548 262.983 179.732L265.323 174.476C266.451 175.196 267.747 175.796 269.211 176.276C270.699 176.732 272.175 176.96 273.639 176.96C274.623 176.96 275.415 176.876 276.015 176.708C276.615 176.516 277.047 176.276 277.311 175.988C277.599 175.676 277.743 175.316 277.743 174.908C277.743 174.332 277.479 173.876 276.951 173.54C276.423 173.204 275.739 172.928 274.899 172.712C274.059 172.496 273.123 172.28 272.091 172.064C271.083 171.848 270.063 171.572 269.031 171.236C268.023 170.9 267.099 170.468 266.259 169.94C265.419 169.388 264.735 168.68 264.207 167.816C263.679 166.928 263.415 165.812 263.415 164.468C263.415 162.956 263.823 161.588 264.639 160.364C265.479 159.14 266.727 158.156 268.383 157.412C270.039 156.668 272.103 156.296 274.575 156.296C276.231 156.296 277.851 156.488 279.435 156.872C281.043 157.232 282.471 157.772 283.719 158.492L281.523 163.784C280.323 163.136 279.135 162.656 277.959 162.344C276.783 162.008 275.643 161.84 274.539 161.84C273.555 161.84 272.763 161.948 272.163 162.164C271.563 162.356 271.131 162.62 270.867 162.956C270.603 163.292 270.471 163.676 270.471 164.108C270.471 164.66 270.723 165.104 271.227 165.44C271.755 165.752 272.439 166.016 273.279 166.232C274.143 166.424 275.079 166.628 276.087 166.844C277.119 167.06 278.139 167.336 279.147 167.672C280.179 167.984 281.115 168.416 281.955 168.968C282.795 169.496 283.467 170.204 283.971 171.092C284.499 171.956 284.763 173.048 284.763 174.368C284.763 175.832 284.343 177.188 283.503 178.436C282.687 179.66 281.451 180.644 279.795 181.388C278.163 182.132 276.099 182.504 273.603 182.504ZM296.911 182.504C294.847 182.504 292.855 182.252 290.935 181.748C289.039 181.22 287.491 180.548 286.291 179.732L288.631 174.476C289.759 175.196 291.055 175.796 292.519 176.276C294.007 176.732 295.483 176.96 296.947 176.96C297.931 176.96 298.723 176.876 299.323 176.708C299.923 176.516 300.355 176.276 300.619 175.988C300.907 175.676 301.051 175.316 301.051 174.908C301.051 174.332 300.787 173.876 300.259 173.54C299.731 173.204 299.047 172.928 298.207 172.712C297.367 172.496 296.431 172.28 295.399 172.064C294.391 171.848 293.371 171.572 292.339 171.236C291.331 170.9 290.407 170.468 289.567 169.94C288.727 169.388 288.043 168.68 287.515 167.816C286.987 166.928 286.723 165.812 286.723 164.468C286.723 162.956 287.131 161.588 287.947 160.364C288.787 159.14 290.035 158.156 291.691 157.412C293.347 156.668 295.411 156.296 297.883 156.296C299.539 156.296 301.159 156.488 302.743 156.872C304.351 157.232 305.779 157.772 307.027 158.492L304.831 163.784C303.631 163.136 302.443 162.656 301.267 162.344C300.091 162.008 298.951 161.84 297.847 161.84C296.863 161.84 296.071 161.948 295.471 162.164C294.871 162.356 294.439 162.62 294.175 162.956C293.911 163.292 293.779 163.676 293.779 164.108C293.779 164.66 294.031 165.104 294.535 165.44C295.063 165.752 295.747 166.016 296.587 166.232C297.451 166.424 298.387 166.628 299.395 166.844C300.427 167.06 301.447 167.336 302.455 167.672C303.487 167.984 304.423 168.416 305.263 168.968C306.103 169.496 306.775 170.204 307.279 171.092C307.807 171.956 308.071 173.048 308.071 174.368C308.071 175.832 307.651 177.188 306.811 178.436C305.995 179.66 304.759 180.644 303.103 181.388C301.471 182.132 299.407 182.504 296.911 182.504Z" fill="white"/>
<path d="M60.832 129.32L59.8332 129.369L59.9502 131.73L61.5631 130.002L60.832 129.32ZM60.216 116.888L59.4844 116.206L59.1963 116.515L59.2172 116.937L60.216 116.888ZM77.072 98.8V97.8H76.637L76.3404 98.1182L77.072 98.8ZM89.28 98.8L90.0148 99.4783L91.564 97.8H89.28V98.8ZM72.48 117L73.2026 117.691L73.2088 117.685L73.2148 117.678L72.48 117ZM66.32 123.44L65.5973 122.749L65.5889 122.758L66.32 123.44ZM50.92 138H49.92V139H50.92V138ZM50.92 98.8V97.8H49.92V98.8H50.92ZM61.896 98.8H62.896V97.8H61.896V98.8ZM61.896 138V139H62.896V138H61.896ZM77.24 138L76.4549 138.619L76.7552 139H77.24V138ZM64.472 121.816L63.7415 121.133L63.1547 121.761L63.6869 122.435L64.472 121.816ZM71.696 114.088L72.4881 113.478L71.7695 112.545L70.9655 113.405L71.696 114.088ZM90.12 138V139H92.1529L90.9121 137.39L90.12 138ZM61.8308 129.271L61.2148 116.839L59.2172 116.937L59.8332 129.369L61.8308 129.271ZM60.9476 117.57L77.8036 99.4818L76.3404 98.1182L59.4844 116.206L60.9476 117.57ZM77.072 99.8H89.28V97.8H77.072V99.8ZM88.5452 98.1217L71.7452 116.322L73.2148 117.678L90.0148 99.4783L88.5452 98.1217ZM71.7574 116.309L65.5974 122.749L67.0426 124.131L73.2026 117.691L71.7574 116.309ZM65.5889 122.758L60.1009 128.638L61.5631 130.002L67.0511 124.122L65.5889 122.758ZM51.92 138V98.8H49.92V138H51.92ZM50.92 99.8H61.896V97.8H50.92V99.8ZM60.896 98.8V138H62.896V98.8H60.896ZM61.896 137H50.92V139H61.896V137ZM78.0251 137.381L65.2571 121.197L63.6869 122.435L76.4549 138.619L78.0251 137.381ZM65.2025 122.499L72.4265 114.771L70.9655 113.405L63.7415 121.133L65.2025 122.499ZM70.9039 114.698L89.3279 138.61L90.9121 137.39L72.4881 113.478L70.9039 114.698ZM90.12 137H77.24V139H90.12V137ZM93.0294 138H92.0294V139H93.0294V138ZM93.0294 98.8V97.8H92.0294V98.8H93.0294ZM104.117 98.8H105.117V97.8H104.117V98.8ZM104.117 138V139H105.117V138H104.117ZM94.0294 138V98.8H92.0294V138H94.0294ZM93.0294 99.8H104.117V97.8H93.0294V99.8ZM103.117 98.8V138H105.117V98.8H103.117ZM104.117 137H93.0294V139H104.117V137ZM120.35 138H119.35V139H120.35V138ZM120.35 107.592H121.35V106.592H120.35V107.592ZM108.31 107.592H107.31V108.592H108.31V107.592ZM108.31 98.8V97.8H107.31V98.8H108.31ZM143.422 98.8H144.422V97.8H143.422V98.8ZM143.422 107.592V108.592H144.422V107.592H143.422ZM131.438 107.592V106.592H130.438V107.592H131.438ZM131.438 138V139H132.438V138H131.438ZM121.35 138V107.592H119.35V138H121.35ZM120.35 106.592H108.31V108.592H120.35V106.592ZM109.31 107.592V98.8H107.31V107.592H109.31ZM108.31 99.8H143.422V97.8H108.31V99.8ZM142.422 98.8V107.592H144.422V98.8H142.422ZM143.422 106.592H131.438V108.592H143.422V106.592ZM130.438 107.592V138H132.438V107.592H130.438ZM131.438 137H120.35V139H131.438V137ZM157.926 137.328L157.566 138.261L157.574 138.264L157.582 138.267L157.926 137.328ZM151.094 133.072L150.401 133.793L150.408 133.8L151.094 133.072ZM146.614 126.632L145.696 127.029L145.698 127.034L146.614 126.632ZM146.614 110.224L147.529 110.626L147.532 110.621L146.614 110.224ZM151.094 103.728L150.408 103L150.401 103.007L151.094 103.728ZM157.926 99.528L158.274 100.465L158.281 100.463L157.926 99.528ZM176.238 99.92L175.83 100.833L175.834 100.835L176.238 99.92ZM183.406 105.408L184.077 106.15L184.773 105.519L184.188 104.785L183.406 105.408ZM176.35 111.792L175.588 112.44L176.256 113.226L177.021 112.534L176.35 111.792ZM172.15 108.376L171.685 109.261L171.694 109.266L172.15 108.376ZM162.686 107.984L163.048 108.916L163.048 108.916L162.686 107.984ZM159.214 110.28L158.494 109.586L158.493 109.587L159.214 110.28ZM156.974 113.808L156.047 113.432L156.043 113.443L156.039 113.454L156.974 113.808ZM156.974 122.992L156.039 123.346L156.043 123.357L156.047 123.368L156.974 122.992ZM159.214 126.576L158.48 127.255L158.493 127.27L158.507 127.283L159.214 126.576ZM162.686 128.816L163.048 127.884L163.048 127.884L162.686 128.816ZM172.15 128.424L171.694 127.534L171.685 127.539L172.15 128.424ZM176.35 125.008L177.021 124.266L176.256 123.574L175.588 124.36L176.35 125.008ZM183.406 131.392L184.183 132.021L184.779 131.286L184.077 130.65L183.406 131.392ZM176.238 136.88L176.646 137.793L176.652 137.79L176.238 136.88ZM166.55 137.784C163.557 137.784 160.8 137.316 158.27 136.389L157.582 138.267C160.353 139.282 163.345 139.784 166.55 139.784V137.784ZM158.286 136.395C155.787 135.431 153.622 134.08 151.78 132.344L150.408 133.8C152.448 135.722 154.838 137.209 157.566 138.261L158.286 136.395ZM151.787 132.351C149.979 130.614 148.561 128.576 147.529 126.23L145.698 127.034C146.833 129.616 148.401 131.871 150.401 133.793L151.787 132.351ZM147.532 126.235C146.508 123.87 145.99 121.263 145.99 118.4H143.99C143.99 121.51 144.554 124.391 145.696 127.029L147.532 126.235ZM145.99 118.4C145.99 115.537 146.508 112.95 147.529 110.626L145.698 109.822C144.554 112.426 143.99 115.29 143.99 118.4H145.99ZM147.532 110.621C148.563 108.238 149.982 106.183 151.787 104.449L150.401 103.007C148.398 104.931 146.83 107.208 145.696 109.827L147.532 110.621ZM151.78 104.456C153.619 102.722 155.78 101.392 158.274 100.465L157.578 98.5906C154.845 99.6057 152.451 101.075 150.408 103L151.78 104.456ZM158.281 100.463C160.808 99.5017 163.561 99.016 166.55 99.016V97.016C163.341 97.016 160.345 97.5383 157.57 98.5933L158.281 100.463ZM166.55 99.016C170.054 99.016 173.14 99.6297 175.83 100.833L176.646 99.0072C173.661 97.6717 170.289 97.016 166.55 97.016V99.016ZM175.834 100.835C178.565 102.041 180.823 103.772 182.624 106.031L184.188 104.785C182.18 102.265 179.66 100.338 176.642 99.0052L175.834 100.835ZM182.735 104.666L175.679 111.05L177.021 112.534L184.077 106.15L182.735 104.666ZM177.112 111.144C175.769 109.565 174.269 108.338 172.606 107.486L171.694 109.266C173.093 109.982 174.392 111.033 175.588 112.44L177.112 111.144ZM172.615 107.491C170.963 106.624 169.121 106.2 167.11 106.2V108.2C168.832 108.2 170.35 108.56 171.685 109.261L172.615 107.491ZM167.11 106.2C165.395 106.2 163.795 106.48 162.323 107.052L163.048 108.916C164.264 108.443 165.615 108.2 167.11 108.2V106.2ZM162.323 107.052C160.849 107.626 159.568 108.471 158.494 109.586L159.934 110.974C160.801 110.073 161.835 109.388 163.048 108.916L162.323 107.052ZM158.493 109.587C157.463 110.659 156.65 111.946 156.047 113.432L157.901 114.184C158.418 112.908 159.099 111.843 159.935 110.973L158.493 109.587ZM156.039 113.454C155.468 114.963 155.19 116.616 155.19 118.4H157.19C157.19 116.824 157.435 115.416 157.909 114.162L156.039 113.454ZM155.19 118.4C155.19 120.184 155.468 121.837 156.039 123.346L157.909 122.638C157.435 121.384 157.19 119.976 157.19 118.4H155.19ZM156.047 123.368C156.649 124.852 157.458 126.151 158.48 127.255L159.948 125.897C159.103 124.985 158.419 123.895 157.901 122.616L156.047 123.368ZM158.507 127.283C159.58 128.357 160.857 129.178 162.323 129.748L163.048 127.884C161.827 127.409 160.789 126.737 159.921 125.869L158.507 127.283ZM162.323 129.748C163.795 130.32 165.395 130.6 167.11 130.6V128.6C165.615 128.6 164.264 128.357 163.048 127.884L162.323 129.748ZM167.11 130.6C169.121 130.6 170.963 130.176 172.615 129.309L171.685 127.539C170.35 128.24 168.832 128.6 167.11 128.6V130.6ZM172.606 129.314C174.269 128.462 175.769 127.235 177.112 125.656L175.588 124.36C174.392 125.767 173.093 126.818 171.694 127.534L172.606 129.314ZM175.679 125.75L182.735 132.134L184.077 130.65L177.021 124.266L175.679 125.75ZM182.629 130.763C180.827 132.989 178.564 134.724 175.824 135.97L176.652 137.79C179.661 136.422 182.177 134.499 184.183 132.021L182.629 130.763ZM175.83 135.967C173.14 137.17 170.054 137.784 166.55 137.784V139.784C170.289 139.784 173.661 139.128 176.646 137.793L175.83 135.967ZM214.558 98.8V97.8H213.558V98.8H214.558ZM225.646 98.8H226.646V97.8H225.646V98.8ZM225.646 138V139H226.646V138H225.646ZM214.558 138H213.558V139H214.558V138ZM199.438 138V139H200.438V138H199.438ZM188.35 138H187.35V139H188.35V138ZM188.35 98.8V97.8H187.35V98.8H188.35ZM199.438 98.8H200.438V97.8H199.438V98.8ZM215.342 122.712V123.712H216.342V122.712H215.342ZM198.654 122.712H197.654V123.712H198.654V122.712ZM198.654 113.528V112.528H197.654V113.528H198.654ZM215.342 113.528H216.342V112.528H215.342V113.528ZM214.558 99.8H225.646V97.8H214.558V99.8ZM224.646 98.8V138H226.646V98.8H224.646ZM225.646 137H214.558V139H225.646V137ZM215.558 138V98.8H213.558V138H215.558ZM199.438 137H188.35V139H199.438V137ZM189.35 138V98.8H187.35V138H189.35ZM188.35 99.8H199.438V97.8H188.35V99.8ZM198.438 98.8V138H200.438V98.8H198.438ZM215.342 121.712H198.654V123.712H215.342V121.712ZM199.654 122.712V113.528H197.654V122.712H199.654ZM198.654 114.528H215.342V112.528H198.654V114.528ZM214.342 113.528V122.712H216.342V113.528H214.342ZM243.659 113.976V112.976H242.659V113.976H243.659ZM261.859 113.976H262.859V112.976H261.859V113.976ZM261.859 122.264V123.264H262.859V122.264H261.859ZM243.659 122.264H242.659V123.264H243.659V122.264ZM244.443 129.432H243.443V130.432H244.443V129.432ZM264.939 129.432H265.939V128.432H264.939V129.432ZM264.939 138V139H265.939V138H264.939ZM233.467 138H232.467V139H233.467V138ZM233.467 98.8V97.8H232.467V98.8H233.467ZM264.211 98.8H265.211V97.8H264.211V98.8ZM264.211 107.368V108.368H265.211V107.368H264.211ZM244.443 107.368V106.368H243.443V107.368H244.443ZM243.659 114.976H261.859V112.976H243.659V114.976ZM260.859 113.976V122.264H262.859V113.976H260.859ZM261.859 121.264H243.659V123.264H261.859V121.264ZM244.659 122.264V113.976H242.659V122.264H244.659ZM244.443 130.432H264.939V128.432H244.443V130.432ZM263.939 129.432V138H265.939V129.432H263.939ZM264.939 137H233.467V139H264.939V137ZM234.467 138V98.8H232.467V138H234.467ZM233.467 99.8H264.211V97.8H233.467V99.8ZM263.211 98.8V107.368H265.211V98.8H263.211ZM264.211 106.368H244.443V108.368H264.211V106.368ZM243.443 107.368V129.432H245.443V107.368H243.443ZM271.092 138H270.092V139H271.092V138ZM271.092 98.8V97.8H270.092V98.8H271.092ZM280.22 98.8L280.99 98.1621L280.69 97.8H280.22V98.8ZM301.836 124.896V125.896H303.963L302.606 124.258L301.836 124.896ZM297.524 124.896H296.524V125.896H297.524V124.896ZM297.524 98.8V97.8H296.524V98.8H297.524ZM308.388 98.8H309.388V97.8H308.388V98.8ZM308.388 138V139H309.388V138H308.388ZM299.26 138L298.49 138.638L298.79 139H299.26V138ZM277.644 111.904V110.904H275.517L276.874 112.542L277.644 111.904ZM281.956 111.904H282.956V110.904H281.956V111.904ZM281.956 138V139H282.956V138H281.956ZM272.092 138V98.8H270.092V138H272.092ZM271.092 99.8H280.22V97.8H271.092V99.8ZM279.45 99.4379L301.066 125.534L302.606 124.258L280.99 98.1621L279.45 99.4379ZM301.836 123.896H297.524V125.896H301.836V123.896ZM298.524 124.896V98.8H296.524V124.896H298.524ZM297.524 99.8H308.388V97.8H297.524V99.8ZM307.388 98.8V138H309.388V98.8H307.388ZM308.388 137H299.26V139H308.388V137ZM300.03 137.362L278.414 111.266L276.874 112.542L298.49 138.638L300.03 137.362ZM277.644 112.904H281.956V110.904H277.644V112.904ZM280.956 111.904V138H282.956V111.904H280.956ZM281.956 137H271.092V139H281.956V137ZM56.648 181.532L56.2926 182.467L56.2926 182.467L56.648 181.532ZM52.184 178.796L51.4909 179.517L51.498 179.524L51.5051 179.53L52.184 178.796ZM49.268 174.62L48.3525 175.022L48.3525 175.022L49.268 174.62ZM49.268 164.18L48.3525 163.778L48.3525 163.778L49.268 164.18ZM52.184 160.04L52.8698 160.768L52.8702 160.767L52.184 160.04ZM56.648 157.268L56.2926 156.333L56.2926 156.333L56.648 157.268ZM67.808 157.268L67.4481 158.201L67.4526 158.203L67.808 157.268ZM72.236 160.04L71.5429 160.761L71.5502 160.768L72.236 160.04ZM75.152 164.18L74.2364 164.582L74.2416 164.594L75.152 164.18ZM75.152 174.656L74.2393 174.247L74.2365 174.254L75.152 174.656ZM72.236 178.796L72.9218 179.524L72.9218 179.524L72.236 178.796ZM67.808 181.532L67.4525 180.597L67.4481 180.599L67.808 181.532ZM64.892 176.096L64.5206 175.167L64.5113 175.171L64.892 176.096ZM67.052 174.656L66.3317 173.962L66.3312 173.963L67.052 174.656ZM68.492 172.352L67.5653 171.976L67.5609 171.987L67.5567 171.998L68.492 172.352ZM68.492 166.448L67.5567 166.802L67.5626 166.817L67.5689 166.833L68.492 166.448ZM67.052 164.18L66.3182 164.859L66.3313 164.874L66.3449 164.887L67.052 164.18ZM64.892 162.704L64.5112 163.629L64.5206 163.632L64.892 162.704ZM59.528 162.704L59.1566 161.775L59.1473 161.779L59.528 162.704ZM57.368 164.18L56.6477 163.486L56.6472 163.487L57.368 164.18ZM55.928 166.448L55.0013 166.072L54.9986 166.079L54.996 166.086L55.928 166.448ZM55.928 172.352L54.9927 172.706L54.9969 172.717L55.0013 172.728L55.928 172.352ZM57.368 174.656L56.6342 175.335L56.6473 175.35L56.6609 175.363L57.368 174.656ZM59.528 176.096L59.1472 177.021L59.1566 177.024L59.528 176.096ZM62.228 181.504C60.3206 181.504 58.5825 181.198 57.0034 180.597L56.2926 182.467C58.1215 183.162 60.1034 183.504 62.228 183.504V181.504ZM57.0034 180.597C55.4127 179.992 54.036 179.146 52.8629 178.062L51.5051 179.53C52.876 180.798 54.4753 181.776 56.2926 182.467L57.0034 180.597ZM52.8771 178.075C51.7233 176.966 50.8269 175.682 50.1835 174.218L48.3525 175.022C49.1011 176.726 50.1487 178.226 51.4909 179.517L52.8771 178.075ZM50.1835 174.218C49.5484 172.772 49.224 171.171 49.224 169.4H47.224C47.224 171.421 47.5956 173.3 48.3525 175.022L50.1835 174.218ZM49.224 169.4C49.224 167.629 49.5484 166.028 50.1835 164.582L48.3525 163.778C47.5956 165.5 47.224 167.379 47.224 169.4H49.224ZM50.1835 164.582C50.8261 163.12 51.7203 161.851 52.8698 160.768L51.4982 159.312C50.1517 160.581 49.1019 162.072 48.3525 163.778L50.1835 164.582ZM52.8702 160.767C54.0426 159.661 55.4169 158.806 57.0034 158.203L56.2926 156.333C54.4711 157.026 52.8694 158.019 51.4978 159.313L52.8702 160.767ZM57.0034 158.203C58.5825 157.602 60.3206 157.296 62.228 157.296V155.296C60.1034 155.296 58.1215 155.638 56.2926 156.333L57.0034 158.203ZM62.228 157.296C64.1612 157.296 65.8972 157.603 67.4481 158.201L68.1679 156.335C66.3588 155.637 64.3748 155.296 62.228 155.296V157.296ZM67.4526 158.203C69.0375 158.805 70.397 159.659 71.5429 160.761L72.9291 159.319C71.579 158.021 69.9865 157.027 68.1634 156.333L67.4526 158.203ZM71.5502 160.768C72.6997 161.851 73.5939 163.12 74.2365 164.582L76.0675 163.778C75.3181 162.072 74.2683 160.581 72.9218 159.312L71.5502 160.768ZM74.2416 164.594C74.8974 166.037 75.232 167.634 75.232 169.4H77.232C77.232 167.374 76.8466 165.491 76.0624 163.766L74.2416 164.594ZM75.232 169.4C75.232 171.166 74.8975 172.777 74.2393 174.247L76.0647 175.065C76.8465 173.319 77.232 171.426 77.232 169.4H75.232ZM74.2365 174.254C73.5939 175.716 72.6997 176.985 71.5502 178.068L72.9218 179.524C74.2683 178.255 75.3181 176.764 76.0675 175.058L74.2365 174.254ZM71.5502 178.068C70.4036 179.149 69.0418 179.993 67.4526 180.597L68.1634 182.467C69.9822 181.775 71.5724 180.795 72.9218 179.524L71.5502 178.068ZM67.4481 180.599C65.8972 181.197 64.1612 181.504 62.228 181.504V183.504C64.3748 183.504 66.3588 183.163 68.1679 182.465L67.4481 180.599ZM62.228 177.6C63.3071 177.6 64.3257 177.411 65.2728 177.021L64.5113 175.171C63.8263 175.453 63.0689 175.6 62.228 175.6V177.6ZM65.2634 177.024C66.2292 176.638 67.0699 176.08 67.7728 175.349L66.3312 173.963C65.8341 174.48 65.2348 174.882 64.5206 175.168L65.2634 177.024ZM67.7723 175.35C68.4954 174.599 69.0461 173.713 69.4273 172.706L67.5567 171.998C67.2659 172.767 66.8566 173.417 66.3317 173.962L67.7723 175.35ZM69.4187 172.728C69.8329 171.706 70.032 170.592 70.032 169.4H68.032C68.032 170.368 67.8711 171.222 67.5653 171.976L69.4187 172.728ZM70.032 169.4C70.032 168.187 69.8341 167.069 69.4151 166.063L67.5689 166.833C67.8699 167.555 68.032 168.405 68.032 169.4H70.032ZM69.4273 166.094C69.045 165.084 68.4908 164.205 67.7591 163.473L66.3449 164.887C66.8612 165.403 67.267 166.036 67.5567 166.802L69.4273 166.094ZM67.7858 163.501C67.0824 162.741 66.2377 162.165 65.2634 161.776L64.5206 163.632C65.2263 163.915 65.8216 164.323 66.3182 164.859L67.7858 163.501ZM65.2728 161.779C64.3257 161.389 63.3071 161.2 62.228 161.2V163.2C63.0689 163.2 63.8263 163.347 64.5113 163.629L65.2728 161.779ZM62.228 161.2C61.1486 161.2 60.1218 161.389 59.1566 161.776L59.8994 163.632C60.6142 163.347 61.3874 163.2 62.228 163.2V161.2ZM59.1473 161.779C58.2008 162.169 57.3658 162.741 56.6477 163.486L58.0883 164.874C58.6183 164.323 59.2232 163.911 59.9088 163.629L59.1473 161.779ZM56.6472 163.487C55.95 164.212 55.404 165.079 55.0013 166.072L56.8547 166.824C57.172 166.041 57.586 165.396 58.0888 164.873L56.6472 163.487ZM54.996 166.086C54.6074 167.085 54.424 168.195 54.424 169.4H56.424C56.424 168.397 56.5766 167.539 56.86 166.81L54.996 166.086ZM54.424 169.4C54.424 170.584 54.6085 171.69 54.9927 172.706L56.8633 171.998C56.5755 171.238 56.424 170.376 56.424 169.4H54.424ZM55.0013 172.728C55.4028 173.718 55.9454 174.591 56.6342 175.335L58.1018 173.977C57.5906 173.425 57.1732 172.762 56.8547 171.976L55.0013 172.728ZM56.6609 175.363C57.3783 176.08 58.2092 176.634 59.1473 177.021L59.9088 175.171C59.2148 174.886 58.6058 174.48 58.0751 173.949L56.6609 175.363ZM59.1566 177.024C60.1218 177.411 61.1486 177.6 62.228 177.6V175.6C61.3874 175.6 60.6142 175.453 59.8994 175.168L59.1566 177.024ZM86.5893 167.852V166.852H85.5893V167.852H86.5893ZM98.2173 167.852H99.2173V166.852H98.2173V167.852ZM98.2173 173.36V174.36H99.2173V173.36H98.2173ZM86.5893 173.36H85.5893V174.36H86.5893V173.36ZM87.0933 182V183H88.0933V182H87.0933ZM79.9653 182H78.9653V183H79.9653V182ZM79.9653 156.8V155.8H78.9653V156.8H79.9653ZM99.7293 156.8H100.729V155.8H99.7293V156.8ZM99.7293 162.308V163.308H100.729V162.308H99.7293ZM87.0933 162.308V161.308H86.0933V162.308H87.0933ZM86.5893 168.852H98.2173V166.852H86.5893V168.852ZM97.2173 167.852V173.36H99.2173V167.852H97.2173ZM98.2173 172.36H86.5893V174.36H98.2173V172.36ZM87.5893 173.36V167.852H85.5893V173.36H87.5893ZM87.0933 181H79.9653V183H87.0933V181ZM80.9653 182V156.8H78.9653V182H80.9653ZM79.9653 157.8H99.7293V155.8H79.9653V157.8ZM98.7293 156.8V162.308H100.729V156.8H98.7293ZM99.7293 161.308H87.0933V163.308H99.7293V161.308ZM86.0933 162.308V182H88.0933V162.308H86.0933ZM119.912 176.42L118.913 176.469L119.03 178.83L120.643 177.102L119.912 176.42ZM119.516 168.428L118.784 167.746L118.496 168.055L118.517 168.477L119.516 168.428ZM130.352 156.8V155.8H129.917L129.62 156.118L130.352 156.8ZM138.2 156.8L138.934 157.478L140.484 155.8H138.2V156.8ZM127.4 168.5L128.122 169.191L128.128 169.185L128.134 169.178L127.4 168.5ZM123.44 172.64L122.717 171.949L122.708 171.958L123.44 172.64ZM113.54 182H112.54V183H113.54V182ZM113.54 156.8V155.8H112.54V156.8H113.54ZM120.596 156.8H121.596V155.8H120.596V156.8ZM120.596 182V183H121.596V182H120.596ZM130.46 182L129.674 182.619L129.975 183H130.46V182ZM122.252 171.596L121.521 170.913L120.934 171.541L121.466 172.215L122.252 171.596ZM126.896 166.628L127.688 166.018L126.969 165.085L126.165 165.945L126.896 166.628ZM138.74 182V183H140.772L139.532 181.39L138.74 182ZM120.91 176.371L120.514 168.379L118.517 168.477L118.913 176.469L120.91 176.371ZM120.247 169.11L131.083 157.482L129.62 156.118L118.784 167.746L120.247 169.11ZM130.352 157.8H138.2V155.8H130.352V157.8ZM137.465 156.122L126.665 167.822L128.134 169.178L138.934 157.478L137.465 156.122ZM126.677 167.809L122.717 171.949L124.162 173.331L128.122 169.191L126.677 167.809ZM122.708 171.958L119.18 175.738L120.643 177.102L124.171 173.322L122.708 171.958ZM114.54 182V156.8H112.54V182H114.54ZM113.54 157.8H120.596V155.8H113.54V157.8ZM119.596 156.8V182H121.596V156.8H119.596ZM120.596 181H113.54V183H120.596V181ZM131.245 181.381L123.037 170.977L121.466 172.215L129.674 182.619L131.245 181.381ZM122.982 172.279L127.626 167.311L126.165 165.945L121.521 170.913L122.982 172.279ZM126.103 167.238L137.947 182.61L139.532 181.39L127.688 166.018L126.103 167.238ZM138.74 181H130.46V183H138.74V181ZM140.61 182H139.61V183H140.61V182ZM140.61 156.8V155.8H139.61V156.8H140.61ZM147.738 156.8H148.738V155.8H147.738V156.8ZM147.738 182V183H148.738V182H147.738ZM141.61 182V156.8H139.61V182H141.61ZM140.61 157.8H147.738V155.8H140.61V157.8ZM146.738 156.8V182H148.738V156.8H146.738ZM147.738 181H140.61V183H147.738V181ZM152.809 182H151.809V183H152.809V182ZM152.809 156.8V155.8H151.809V156.8H152.809ZM158.677 156.8L159.447 156.162L159.147 155.8H158.677V156.8ZM172.573 173.576V174.576H174.7L173.343 172.938L172.573 173.576ZM169.801 173.576H168.801V174.576H169.801V173.576ZM169.801 156.8V155.8H168.801V156.8H169.801ZM176.785 156.8H177.785V155.8H176.785V156.8ZM176.785 182V183H177.785V182H176.785ZM170.917 182L170.147 182.638L170.447 183H170.917V182ZM157.021 165.224V164.224H154.894L156.251 165.862L157.021 165.224ZM159.793 165.224H160.793V164.224H159.793V165.224ZM159.793 182V183H160.793V182H159.793ZM153.809 182V156.8H151.809V182H153.809ZM152.809 157.8H158.677V155.8H152.809V157.8ZM157.907 157.438L171.803 174.214L173.343 172.938L159.447 156.162L157.907 157.438ZM172.573 172.576H169.801V174.576H172.573V172.576ZM170.801 173.576V156.8H168.801V173.576H170.801ZM169.801 157.8H176.785V155.8H169.801V157.8ZM175.785 156.8V182H177.785V156.8H175.785ZM176.785 181H170.917V183H176.785V181ZM171.687 181.362L157.791 164.586L156.251 165.862L170.147 182.638L171.687 181.362ZM157.021 166.224H159.793V164.224H157.021V166.224ZM158.793 165.224V182H160.793V165.224H158.793ZM159.793 181H152.809V183H159.793V181ZM181.813 182H180.813V183H181.813V182ZM181.813 156.8V155.8H180.813V156.8H181.813ZM201.073 158.348L200.634 159.246L200.634 159.246L201.073 158.348ZM206.005 162.704L205.158 163.236L205.163 163.244L206.005 162.704ZM206.005 176.096L205.16 175.561L205.158 175.564L206.005 176.096ZM188.941 176.312H187.941V177.312H188.941V176.312ZM197.185 175.52L197.632 176.414L197.64 176.41L197.185 175.52ZM199.705 173.144L200.57 173.647L200.574 173.638L199.705 173.144ZM199.705 165.656L200.569 165.153L200.569 165.153L199.705 165.656ZM197.185 163.316L196.722 164.202L196.734 164.208L196.746 164.214L197.185 163.316ZM188.941 162.488V161.488H187.941V162.488H188.941ZM182.813 182V156.8H180.813V182H182.813ZM181.813 157.8H193.729V155.8H181.813V157.8ZM193.729 157.8C196.389 157.8 198.682 158.293 200.634 159.246L201.512 157.45C199.24 156.339 196.637 155.8 193.729 155.8V157.8ZM200.634 159.246C202.59 160.202 204.088 161.532 205.158 163.236L206.852 162.172C205.57 160.132 203.78 158.558 201.512 157.45L200.634 159.246ZM205.163 163.244C206.244 164.929 206.805 166.967 206.805 169.4H208.805C208.805 166.649 208.166 164.223 206.847 162.164L205.163 163.244ZM206.805 169.4C206.805 171.807 206.245 173.847 205.16 175.561L206.85 176.631C208.165 174.553 208.805 172.129 208.805 169.4H206.805ZM205.158 175.564C204.088 177.268 202.59 178.598 200.634 179.554L201.512 181.35C203.78 180.242 205.57 178.668 206.852 176.628L205.158 175.564ZM200.634 179.554C198.682 180.507 196.389 181 193.729 181V183C196.637 183 199.24 182.461 201.512 181.35L200.634 179.554ZM193.729 181H181.813V183H193.729V181ZM188.941 177.312H193.441V175.312H188.941V177.312ZM193.441 177.312C195.003 177.312 196.41 177.025 197.632 176.414L196.738 174.626C195.848 175.071 194.759 175.312 193.441 175.312V177.312ZM197.64 176.41C198.888 175.773 199.871 174.847 200.569 173.647L198.84 172.641C198.339 173.505 197.642 174.163 196.73 174.63L197.64 176.41ZM200.574 173.638C201.275 172.406 201.605 170.981 201.605 169.4H199.605C199.605 170.699 199.335 171.77 198.836 172.65L200.574 173.638ZM201.605 169.4C201.605 167.799 201.276 166.369 200.569 165.153L198.84 166.159C199.334 167.007 199.605 168.073 199.605 169.4H201.605ZM200.569 165.153C199.869 163.949 198.881 163.032 197.624 162.418L196.746 164.214C197.649 164.656 198.341 165.299 198.84 166.159L200.569 165.153ZM197.648 162.43C196.422 161.789 195.009 161.488 193.441 161.488V163.488C194.753 163.488 195.836 163.739 196.722 164.202L197.648 162.43ZM193.441 161.488H188.941V163.488H193.441V161.488ZM187.941 162.488V176.312H189.941V162.488H187.941ZM211.555 182H210.555V183H211.555V182ZM211.555 156.8V155.8H210.555V156.8H211.555ZM217.423 156.8L218.193 156.162L217.893 155.8H217.423V156.8ZM231.319 173.576V174.576H233.446L232.089 172.938L231.319 173.576ZM228.547 173.576H227.547V174.576H228.547V173.576ZM228.547 156.8V155.8H227.547V156.8H228.547ZM235.531 156.8H236.531V155.8H235.531V156.8ZM235.531 182V183H236.531V182H235.531ZM229.663 182L228.893 182.638L229.193 183H229.663V182ZM215.767 165.224V164.224H213.64L214.997 165.862L215.767 165.224ZM218.539 165.224H219.539V164.224H218.539V165.224ZM218.539 182V183H219.539V182H218.539ZM212.555 182V156.8H210.555V182H212.555ZM211.555 157.8H217.423V155.8H211.555V157.8ZM216.653 157.438L230.549 174.214L232.089 172.938L218.193 156.162L216.653 157.438ZM231.319 172.576H228.547V174.576H231.319V172.576ZM229.547 173.576V156.8H227.547V173.576H229.547ZM228.547 157.8H235.531V155.8H228.547V157.8ZM234.531 156.8V182H236.531V156.8H234.531ZM235.531 181H229.663V183H235.531V181ZM230.433 181.362L216.537 164.586L214.997 165.862L228.893 182.638L230.433 181.362ZM215.767 166.224H218.539V164.224H215.767V166.224ZM217.539 165.224V182H219.539V165.224H217.539ZM218.539 181H211.555V183H218.539V181ZM247.111 166.556V165.556H246.111V166.556H247.111ZM258.811 166.556H259.811V165.556H258.811V166.556ZM258.811 171.884V172.884H259.811V171.884H258.811ZM247.111 171.884H246.111V172.884H247.111V171.884ZM247.615 176.492H246.615V177.492H247.615V176.492ZM260.791 176.492H261.791V175.492H260.791V176.492ZM260.791 182V183H261.791V182H260.791ZM240.559 182H239.559V183H240.559V182ZM240.559 156.8V155.8H239.559V156.8H240.559ZM260.323 156.8H261.323V155.8H260.323V156.8ZM260.323 162.308V163.308H261.323V162.308H260.323ZM247.615 162.308V161.308H246.615V162.308H247.615ZM247.111 167.556H258.811V165.556H247.111V167.556ZM257.811 166.556V171.884H259.811V166.556H257.811ZM258.811 170.884H247.111V172.884H258.811V170.884ZM248.111 171.884V166.556H246.111V171.884H248.111ZM247.615 177.492H260.791V175.492H247.615V177.492ZM259.791 176.492V182H261.791V176.492H259.791ZM260.791 181H240.559V183H260.791V181ZM241.559 182V156.8H239.559V182H241.559ZM240.559 157.8H260.323V155.8H240.559V157.8ZM259.323 156.8V162.308H261.323V156.8H259.323ZM260.323 161.308H247.615V163.308H260.323V161.308ZM246.615 162.308V176.492H248.615V162.308H246.615ZM267.627 181.748L267.358 182.711L267.365 182.713L267.373 182.715L267.627 181.748ZM262.983 179.732L262.069 179.325L261.729 180.089L262.42 180.559L262.983 179.732ZM265.323 174.476L265.861 173.633L264.881 173.008L264.409 174.069L265.323 174.476ZM269.211 176.276L268.899 177.226L268.908 177.229L268.918 177.232L269.211 176.276ZM276.015 176.708L276.284 177.671L276.302 177.666L276.319 177.66L276.015 176.708ZM277.311 175.988L276.576 175.31L276.573 175.312L277.311 175.988ZM276.951 173.54L276.414 174.384L276.414 174.384L276.951 173.54ZM274.899 172.712L275.148 171.744L275.148 171.744L274.899 172.712ZM272.091 172.064L271.881 173.042L271.886 173.043L272.091 172.064ZM269.031 171.236L268.714 172.185L268.721 172.187L269.031 171.236ZM266.259 169.94L265.709 170.776L265.718 170.781L265.726 170.787L266.259 169.94ZM264.207 167.816L263.347 168.327L263.353 168.337L264.207 167.816ZM264.639 160.364L263.814 159.798L263.807 159.809L264.639 160.364ZM268.383 157.412L267.973 156.5L267.973 156.5L268.383 157.412ZM279.435 156.872L279.199 157.844L279.208 157.846L279.216 157.848L279.435 156.872ZM283.719 158.492L284.642 158.875L284.979 158.064L284.218 157.626L283.719 158.492ZM281.523 163.784L281.047 164.664L282.022 165.19L282.446 164.167L281.523 163.784ZM277.959 162.344L277.684 163.306L277.693 163.308L277.702 163.311L277.959 162.344ZM272.163 162.164L272.467 163.116L272.484 163.111L272.501 163.105L272.163 162.164ZM270.867 162.956L270.08 162.338L270.08 162.338L270.867 162.956ZM271.227 165.44L270.672 166.272L270.694 166.287L270.718 166.301L271.227 165.44ZM273.279 166.232L273.03 167.2L273.046 167.205L273.062 167.208L273.279 166.232ZM276.087 166.844L275.877 167.822L275.882 167.823L276.087 166.844ZM279.147 167.672L278.83 168.621L278.844 168.625L278.857 168.629L279.147 167.672ZM281.955 168.968L281.405 169.804L281.414 169.809L281.422 169.815L281.955 168.968ZM283.971 171.092L283.101 171.586L283.109 171.6L283.117 171.613L283.971 171.092ZM283.503 178.436L282.673 177.878L282.671 177.881L283.503 178.436ZM279.795 181.388L279.385 180.476L279.38 180.478L279.795 181.388ZM273.603 181.504C271.621 181.504 269.714 181.262 267.88 180.781L267.373 182.715C269.379 183.242 271.456 183.504 273.603 183.504V181.504ZM267.895 180.785C266.069 180.276 264.629 179.642 263.545 178.905L262.42 180.559C263.736 181.454 265.392 182.164 267.358 182.711L267.895 180.785ZM263.896 180.139L266.236 174.883L264.409 174.069L262.069 179.325L263.896 180.139ZM264.785 175.319C265.993 176.09 267.367 176.724 268.899 177.226L269.522 175.326C268.126 174.868 266.908 174.302 265.861 173.633L264.785 175.319ZM268.918 177.232C270.495 177.715 272.069 177.96 273.639 177.96V175.96C272.28 175.96 270.903 175.749 269.504 175.32L268.918 177.232ZM273.639 177.96C274.668 177.96 275.561 177.873 276.284 177.671L275.745 175.745C275.268 175.879 274.578 175.96 273.639 175.96V177.96ZM276.319 177.66C276.994 177.445 277.615 177.136 278.048 176.664L276.573 175.312C276.478 175.416 276.235 175.587 275.71 175.756L276.319 177.66ZM278.045 176.666C278.496 176.178 278.743 175.578 278.743 174.908H276.743C276.743 175.054 276.701 175.174 276.576 175.31L278.045 176.666ZM278.743 174.908C278.743 173.956 278.274 173.197 277.487 172.696L276.414 174.384C276.683 174.555 276.743 174.708 276.743 174.908H278.743ZM277.487 172.696C276.844 172.287 276.053 171.976 275.148 171.744L274.65 173.68C275.424 173.88 276.001 174.121 276.414 174.384L277.487 172.696ZM275.148 171.744C274.29 171.523 273.339 171.304 272.295 171.085L271.886 173.043C272.906 173.256 273.827 173.469 274.65 173.68L275.148 171.744ZM272.3 171.086C271.328 170.878 270.341 170.611 269.34 170.285L268.721 172.187C269.784 172.533 270.838 172.818 271.881 173.042L272.3 171.086ZM269.347 170.287C268.409 169.975 267.558 169.576 266.791 169.093L265.726 170.787C266.639 171.36 267.636 171.825 268.714 172.185L269.347 170.287ZM266.808 169.104C266.092 168.634 265.511 168.034 265.06 167.295L263.353 168.337C263.958 169.326 264.745 170.142 265.709 170.776L266.808 169.104ZM265.066 167.305C264.654 166.611 264.415 165.685 264.415 164.468H262.415C262.415 165.939 262.703 167.245 263.347 168.327L265.066 167.305ZM264.415 164.468C264.415 163.148 264.767 161.974 265.471 160.919L263.807 159.809C262.878 161.202 262.415 162.764 262.415 164.468H264.415ZM265.463 160.93C266.178 159.888 267.266 159.01 268.792 158.324L267.973 156.5C266.187 157.302 264.779 158.392 263.814 159.798L265.463 160.93ZM268.792 158.324C270.282 157.655 272.196 157.296 274.575 157.296V155.296C272.009 155.296 269.795 155.681 267.973 156.5L268.792 158.324ZM274.575 157.296C276.152 157.296 277.693 157.479 279.199 157.844L279.67 155.9C278.008 155.497 276.309 155.296 274.575 155.296V157.296ZM279.216 157.848C280.739 158.189 282.07 158.695 283.219 159.358L284.218 157.626C282.871 156.849 281.346 156.275 279.653 155.896L279.216 157.848ZM282.795 158.109L280.599 163.401L282.446 164.167L284.642 158.875L282.795 158.109ZM281.998 162.904C280.737 162.223 279.476 161.712 278.215 161.377L277.702 163.311C278.794 163.6 279.908 164.049 281.047 164.664L281.998 162.904ZM278.233 161.382C276.977 161.024 275.745 160.84 274.539 160.84V162.84C275.54 162.84 276.588 162.992 277.684 163.306L278.233 161.382ZM274.539 160.84C273.495 160.84 272.575 160.953 271.824 161.223L272.501 163.105C272.95 162.943 273.614 162.84 274.539 162.84V160.84ZM271.858 161.212C271.153 161.437 270.513 161.787 270.08 162.338L271.653 163.574C271.748 163.453 271.972 163.275 272.467 163.116L271.858 161.212ZM270.08 162.338C269.676 162.852 269.471 163.455 269.471 164.108H271.471C271.471 163.897 271.529 163.732 271.653 163.574L270.08 162.338ZM269.471 164.108C269.471 165.031 269.922 165.772 270.672 166.272L271.781 164.608C271.523 164.436 271.471 164.289 271.471 164.108H269.471ZM270.718 166.301C271.353 166.676 272.133 166.97 273.03 167.2L273.528 165.264C272.744 165.062 272.156 164.828 271.735 164.579L270.718 166.301ZM273.062 167.208C273.928 167.401 274.867 167.605 275.877 167.822L276.296 165.866C275.29 165.651 274.357 165.447 273.495 165.256L273.062 167.208ZM275.882 167.823C276.876 168.031 277.859 168.297 278.83 168.621L279.463 166.723C278.419 166.375 277.361 166.089 276.291 165.865L275.882 167.823ZM278.857 168.629C279.804 168.915 280.651 169.308 281.405 169.804L282.504 168.132C281.578 167.524 280.553 167.053 279.436 166.715L278.857 168.629ZM281.422 169.815C282.118 170.252 282.676 170.837 283.101 171.586L284.84 170.598C284.257 169.571 283.471 168.74 282.487 168.121L281.422 169.815ZM283.117 171.613C283.524 172.28 283.763 173.177 283.763 174.368H285.763C285.763 172.919 285.473 171.632 284.824 170.571L283.117 171.613ZM283.763 174.368C283.763 175.627 283.405 176.79 282.673 177.878L284.332 178.994C285.28 177.586 285.763 176.037 285.763 174.368H283.763ZM282.671 177.881C281.981 178.916 280.909 179.791 279.385 180.476L280.204 182.3C281.992 181.497 283.392 180.404 284.335 178.991L282.671 177.881ZM279.38 180.478C277.918 181.144 276.008 181.504 273.603 181.504V183.504C276.189 183.504 278.407 183.12 280.209 182.298L279.38 180.478ZM290.935 181.748L290.667 182.711L290.674 182.713L290.681 182.715L290.935 181.748ZM286.291 179.732L285.378 179.325L285.038 180.089L285.729 180.559L286.291 179.732ZM288.631 174.476L289.169 173.633L288.19 173.008L287.718 174.069L288.631 174.476ZM292.519 176.276L292.208 177.226L292.217 177.229L292.226 177.232L292.519 176.276ZM299.323 176.708L299.593 177.671L299.61 177.666L299.628 177.66L299.323 176.708ZM300.619 175.988L299.884 175.31L299.882 175.312L300.619 175.988ZM300.259 173.54L299.722 174.384L299.722 174.384L300.259 173.54ZM298.207 172.712L298.456 171.744L298.456 171.744L298.207 172.712ZM295.399 172.064L295.19 173.042L295.194 173.043L295.399 172.064ZM292.339 171.236L292.023 172.185L292.03 172.187L292.339 171.236ZM289.567 169.94L289.018 170.776L289.026 170.781L289.035 170.787L289.567 169.94ZM287.515 167.816L286.656 168.327L286.662 168.337L287.515 167.816ZM287.947 160.364L287.123 159.798L287.115 159.809L287.947 160.364ZM291.691 157.412L291.281 156.5L291.281 156.5L291.691 157.412ZM302.743 156.872L302.508 157.844L302.516 157.846L302.525 157.848L302.743 156.872ZM307.027 158.492L307.951 158.875L308.287 158.064L307.527 157.626L307.027 158.492ZM304.831 163.784L304.356 164.664L305.33 165.19L305.755 164.167L304.831 163.784ZM301.267 162.344L300.992 163.306L301.002 163.308L301.011 163.311L301.267 162.344ZM295.471 162.164L295.776 163.116L295.793 163.111L295.81 163.105L295.471 162.164ZM294.175 162.956L293.389 162.338L293.389 162.338L294.175 162.956ZM294.535 165.44L293.98 166.272L294.003 166.287L294.026 166.301L294.535 165.44ZM296.587 166.232L296.338 167.2L296.354 167.205L296.37 167.208L296.587 166.232ZM299.395 166.844L299.186 167.822L299.19 167.823L299.395 166.844ZM302.455 167.672L302.139 168.621L302.152 168.625L302.166 168.629L302.455 167.672ZM305.263 168.968L304.714 169.804L304.722 169.809L304.731 169.815L305.263 168.968ZM307.279 171.092L306.409 171.586L306.417 171.6L306.426 171.613L307.279 171.092ZM306.811 178.436L305.982 177.878L305.979 177.881L306.811 178.436ZM303.103 181.388L302.693 180.476L302.688 180.478L303.103 181.388ZM296.911 181.504C294.929 181.504 293.023 181.262 291.189 180.781L290.681 182.715C292.687 183.242 294.765 183.504 296.911 183.504V181.504ZM291.203 180.785C289.377 180.276 287.938 179.642 286.853 178.905L285.729 180.559C287.044 181.454 288.701 182.164 290.667 182.711L291.203 180.785ZM287.205 180.139L289.545 174.883L287.718 174.069L285.378 179.325L287.205 180.139ZM288.093 175.319C289.302 176.09 290.676 176.724 292.208 177.226L292.831 175.326C291.435 174.868 290.217 174.302 289.169 173.633L288.093 175.319ZM292.226 177.232C293.803 177.715 295.378 177.96 296.947 177.96V175.96C295.589 175.96 294.211 175.749 292.812 175.32L292.226 177.232ZM296.947 177.96C297.976 177.96 298.87 177.873 299.593 177.671L299.054 175.745C298.577 175.879 297.886 175.96 296.947 175.96V177.96ZM299.628 177.66C300.302 177.445 300.924 177.136 301.356 176.664L299.882 175.312C299.787 175.416 299.544 175.587 299.018 175.756L299.628 177.66ZM301.354 176.666C301.805 176.178 302.051 175.578 302.051 174.908H300.051C300.051 175.054 300.009 175.174 299.884 175.31L301.354 176.666ZM302.051 174.908C302.051 173.956 301.583 173.197 300.796 172.696L299.722 174.384C299.992 174.555 300.051 174.708 300.051 174.908H302.051ZM300.796 172.696C300.152 172.287 299.362 171.976 298.456 171.744L297.958 173.68C298.732 173.88 299.31 174.121 299.722 174.384L300.796 172.696ZM298.456 171.744C297.599 171.523 296.648 171.304 295.604 171.085L295.194 173.043C296.215 173.256 297.135 173.469 297.958 173.68L298.456 171.744ZM295.609 171.086C294.636 170.878 293.65 170.611 292.649 170.285L292.03 172.187C293.093 172.533 294.146 172.818 295.19 173.042L295.609 171.086ZM292.655 170.287C291.718 169.975 290.867 169.576 290.099 169.093L289.035 170.787C289.947 171.36 290.944 171.825 292.023 172.185L292.655 170.287ZM290.116 169.104C289.401 168.634 288.82 168.034 288.368 167.295L286.662 168.337C287.266 169.326 288.054 170.142 289.018 170.776L290.116 169.104ZM288.375 167.305C287.962 166.611 287.723 165.685 287.723 164.468H285.723C285.723 165.939 286.012 167.245 286.656 168.327L288.375 167.305ZM287.723 164.468C287.723 163.148 288.076 161.974 288.779 160.919L287.115 159.809C286.186 161.202 285.723 162.764 285.723 164.468H287.723ZM288.772 160.93C289.487 159.888 290.575 159.01 292.101 158.324L291.281 156.5C289.495 157.302 288.087 158.392 287.123 159.798L288.772 160.93ZM292.101 158.324C293.59 157.655 295.504 157.296 297.883 157.296V155.296C295.318 155.296 293.104 155.681 291.281 156.5L292.101 158.324ZM297.883 157.296C299.461 157.296 301.002 157.479 302.508 157.844L302.979 155.9C301.316 155.497 299.617 155.296 297.883 155.296V157.296ZM302.525 157.848C304.048 158.189 305.379 158.695 306.527 159.358L307.527 157.626C306.18 156.849 304.654 156.275 302.962 155.896L302.525 157.848ZM306.104 158.109L303.908 163.401L305.755 164.167L307.951 158.875L306.104 158.109ZM305.306 162.904C304.045 162.223 302.784 161.712 301.524 161.377L301.011 163.311C302.102 163.6 303.217 164.049 304.356 164.664L305.306 162.904ZM301.542 161.382C300.286 161.024 299.053 160.84 297.847 160.84V162.84C298.849 162.84 299.896 162.992 300.992 163.306L301.542 161.382ZM297.847 160.84C296.803 160.84 295.883 160.953 295.132 161.223L295.81 163.105C296.259 162.943 296.923 162.84 297.847 162.84V160.84ZM295.166 161.212C294.461 161.437 293.822 161.787 293.389 162.338L294.961 163.574C295.056 163.453 295.281 163.275 295.776 163.116L295.166 161.212ZM293.389 162.338C292.985 162.852 292.779 163.455 292.779 164.108H294.779C294.779 163.897 294.838 163.732 294.961 163.574L293.389 162.338ZM292.779 164.108C292.779 165.031 293.23 165.772 293.98 166.272L295.09 164.608C294.832 164.436 294.779 164.289 294.779 164.108H292.779ZM294.026 166.301C294.661 166.676 295.441 166.97 296.338 167.2L296.836 165.264C296.053 165.062 295.465 164.828 295.044 164.579L294.026 166.301ZM296.37 167.208C297.237 167.401 298.176 167.605 299.186 167.822L299.605 165.866C298.599 165.651 297.665 165.447 296.804 165.256L296.37 167.208ZM299.19 167.823C300.184 168.031 301.167 168.297 302.139 168.621L302.771 166.723C301.727 166.375 300.67 166.089 299.6 165.865L299.19 167.823ZM302.166 168.629C303.112 168.915 303.96 169.308 304.714 169.804L305.812 168.132C304.886 167.524 303.862 167.053 302.745 166.715L302.166 168.629ZM304.731 169.815C305.427 170.252 305.985 170.837 306.409 171.586L308.149 170.598C307.566 169.571 306.779 168.74 305.795 168.121L304.731 169.815ZM306.426 171.613C306.833 172.28 307.071 173.177 307.071 174.368H309.071C309.071 172.919 308.781 171.632 308.132 170.571L306.426 171.613ZM307.071 174.368C307.071 175.627 306.714 176.79 305.982 177.878L307.641 178.994C308.589 177.586 309.071 176.037 309.071 174.368H307.071ZM305.979 177.881C305.289 178.916 304.218 179.791 302.693 180.476L303.513 182.3C305.3 181.497 306.701 180.404 307.643 178.991L305.979 177.881ZM302.688 180.478C301.227 181.144 299.316 181.504 296.911 181.504V183.504C299.498 183.504 301.715 183.12 303.518 182.298L302.688 180.478Z" fill="#A04F32" mask="url(#path-4-outside-1_1_302)"/>
</g>
<path fill-rule="evenodd" clip-rule="evenodd" d="M145.667 33.3333C145.666 30.9368 146.183 28.5684 147.181 26.3896C148.179 24.2109 149.636 22.273 151.451 20.7081C153.266 19.1433 155.397 17.9883 157.699 17.3219C160.001 16.6555 162.42 16.4934 164.79 16.8467C165.798 13.8777 167.711 11.2991 170.259 9.47283C172.808 7.64659 175.865 6.66452 179 6.66452C182.135 6.66452 185.192 7.64659 187.741 9.47283C190.289 11.2991 192.202 13.8777 193.21 16.8467C194.01 16.7267 194.829 16.6667 195.667 16.6667C199.498 16.6642 203.213 17.9815 206.186 20.397C209.16 22.8124 211.21 26.1785 211.993 29.9287C212.775 33.6788 212.242 37.5841 210.483 40.9872C208.724 44.3903 205.846 47.0835 202.333 48.6133V57.5H155.667V48.6133C152.694 47.3158 150.164 45.179 148.388 42.4648C146.611 39.7506 145.666 36.5771 145.667 33.3333ZM175.81 45.5667C172.883 43.4133 169 39.9467 169 36.6667C169 31.09 174.5 29.01 179 33.3167C183.5 29.01 189 31.09 189 36.6667C189 39.95 185.117 43.4167 182.19 45.5667C180.79 46.59 180.09 47.1033 179 47.1033C177.907 47.1033 177.21 46.59 175.81 45.5633" fill="white"/>
<path d="M157.62 71.38C155.943 69.7067 155.707 67.1567 155.673 62.5H202.327C202.293 67.1567 202.057 69.7067 200.38 71.38C198.427 73.3333 195.287 73.3333 189 73.3333H169C162.713 73.3333 159.573 73.3333 157.62 71.38Z" fill="white"/>
<defs>
<filter id="filter0_d_1_302" x="47.224" y="97.016" width="262.164" height="88.488" filterUnits="userSpaceOnUse" color-interpolation-filters="sRGB">
<feFlood flood-opacity="0" result="BackgroundImageFix"/>
<feColorMatrix in="SourceAlpha" type="matrix" values="0 0 0 0 0 0 0 0 0 0 0 0 0 0 0 0 0 0 127 0" result="hardAlpha"/>
<feOffset dy="2"/>
<feComposite in2="hardAlpha" operator="out"/>
<feColorMatrix type="matrix" values="0 0 0 0 0.626615 0 0 0 0 0.310314 0 0 0 0 0.195295 0 0 0 1 0"/>
<feBlend mode="normal" in2="BackgroundImageFix" result="effect1_dropShadow_1_302"/>
<feBlend mode="normal" in="SourceGraphic" in2="effect1_dropShadow_1_302" result="shape"/>
</filter>
</defs>
</svg>
